# xmcd CD database file
#
# Track frame offsets:
#       183
#       17575
#       30133
#       40280
#       53250
#       65178
#       75238
#       97908
#       106703
#       116340
#       129775
#       142108
#       151380
#       161015
#       175290
#       186053
#       195800
#       205433
#       223153
#       234030
#
# Disc length: 3312 seconds
#
# Revision: 1
# Processed by: cddbd v1.4PL0 Copyright (c) Steve Scherf et al.
# Submitted via: jack 2.99.9
#
DISCID=f10cee14
DTITLE=Convoy Crew - Trucking Greats
DYEAR=1900
DGENRE=
TTITLE0=Convoy
TTITLE1=Eighteen Wheels
TTITLE2=Movin' On
TTITLE3=Me And Old CB
TTITLE4=Ode To 10-33
TTITLE5=Six Days On The Road
TTITLE6=Teddy Bear
TTITLE7=Trick Drivin' Man
TTITLE8=Rhythm Of The Road
TTITLE9=Big City
TTITLE10=Freightliner Fever
TTITLE11=Hold Everything
TTITLE12=I'll Have Another Cup Of Coffee
TTITLE13=Phantom 309
TTITLE14=Tennessee Is Home To Me
TTITLE15=Dixie Winds
TTITLE16=Trucker's Way Of Life
TTITLE17=Wolf Creek Pass
TTITLE18=Trucker's Lady
TTITLE19=Highway 40 Blues
EXTD=
EXTT0=
EXTT1=
EXTT2=
EXTT3=
EXTT4=
EXTT5=
EXTT6=
EXTT7=
EXTT8=
EXTT9=
EXTT10=
EXTT11=
EXTT12=
EXTT13=
EXTT14=
EXTT15=
EXTT16=
EXTT17=
EXTT18=
EXTT19=
PLAYORDER=
